<svg id="Logo" xmlns="http://www.w3.org/2000/svg" viewBox="0 0 566.9 240.9">
  <style>
    .st0{fill:#EE3124;}
  </style>
  <path class="st0" d="M487.3 71.9c7.5-1.4 14.1-8.3 14.7-15.5.6-7.2-5.1-11.9-12.6-10.5-7.5 1.4-14.1 8.3-14.7 15.5-.6 7.2 5.1 11.9 12.6 10.5zM189.1 55.2c-7.4 1.4-13.9 8.2-14.5 15.3-.6 7.1 5 11.7 12.4 10.3 7.4-1.4 13.9-8.2 14.5-15.3.6-7.1-4.9-11.7-12.4-10.3z"/>
  <path class="st0" d="M241.5 86.6c-3.1.6-6.6 1.2-20.4 17.2 3.4-6.2 4.5-11.2.3-14-4.3-2.9-11.9-.7-16.1 2.1-2.6 1.7-2.7 2.5-3.1 5.7-.4 2.1-2.3 6.8-3.6 9.4l-4.2 8.9c-15.8 27.4-24.7 34.9-27.3 38-2.7 2.9-4.9 4.6-6.5 4.9-1.2.2-1.7-.6-1.5-2.1.2-2.2 1-5.3 2.8-9.4 3-6.8 7.8-16.9 11.6-23.7 2-4.1 7.3-13.6 7.3-13.6 5-11-4.5-14.9-10-14.1-1.6.2-19 2.2-38.9 5.6 10.9-45.1 10-38.4 21.3-67.3 5.5-14.1 4.9-17.3.2-22.7-4.7-5.3-3.8-11.2-9.1-11.7C132-1.3 89.4 59.7 55.1 118.9c-16.2 4.8-32.3 10.5-47.2 17.2-9.9 4.5-8 12.6-7.1 16.8 1.2 5.9 7.7 8.5 12.7 5.6 7.7-4.3 16.6-8.4 26.1-12.2-.3.6-.4 1-.3.9-13 24.3-27.6 58.1-32.4 73.1-2.7 8.4 1.6 15.9 8.9 19.2 7.3 3.3 12.2-.2 14.7-11.5 3-14 21.5-57.5 40.1-92.5 0 0 .1-.1.3-.4 11.3-3.6 22.6-6.8 33.4-9.6-6.6 27.6-8.3 39.1-8.2 48.6.1 9.4 3.5 20.3 13.9 18.8 10.3-1.5 8.6-11.1 9.8-20 2.6-20.4 3-29.2 7.9-52.6.1 0 .3-.3.4-.7 11.5-2.7 21.2-4.7 28.1-6.1-1 2.1-2.1 4.3-3.2 6.7-4.5 9.1-9.4 20.3-12.5 28.4-2.9 8.1-4.6 14.5-5 19.9-1 12 4.2 18.4 13.2 16.7 6.7-1.3 17.1-10.3 28.7-28.3-1.3 4.3-2.1 7.8-2.2 10-.4 9.3 4.3 17 19.5 6.8 1.5-1 1.7-2.5 1.8-5.5.8-10.1 4.9-23.4 14-37.1 7.1-10.5 12.1-16.5 18.6-19.3 11.5-4.9 18.8-3.4 25.2-11.1 6-7-7.1-15.1-12.8-14.1zm-132.3 19.3c-8 1.6-16.5 3.5-25.2 5.6 15-26.6 31.7-53.2 47.2-74.1-7.8 18.7-15.6 43.9-22 68.5zM558 116.6c-3.3 5.3-6.3 9.9-10.5 14.4-3.8 4.1-6.9 5.8-8.5 5.2-4.4-1.6-1.9-7.8 2.6-16.9 2.1-4.3 5.1-9.8 7.8-14.6 3.8-6.2 4.6-7.9 4.9-10.2.4-3.2-1.6-5.3-7.6-7.7-3.8-1.7-4.1-2-5.7-6.3-2.2-5.4-6.8-8-12.4-7.2-8.6 1.2-22 11.5-33.8 26-4.3 4.9-19.1 24.6-20.9 27.1l-2.3 3.1c-6.5 8.7-8.2 10.8-11.1 13.9-2.8 2.8-5.1 4.4-6.7 4.6-1.2.2-1.6-.7-1.4-2.2.3-2.2 1.3-5.3 3.3-9.2 3.3-6.7 8.6-16.5 12.7-23.1 2.2-4 6.1-11.1 6.4-11.9l2.2-3.8c5.6-9.9-3-14.7-9.4-14.2-2.5.2-6.7 2-8.8 3.6-1.7 1.1-1.9 1.5-2.4 3.8-.6 2.8-4.4 11.1-8.4 18.4-5 8.9-10.4 19.9-13.9 27.8-3.3 7.9-5.3 14.2-6 19.6-1.5 11.9 3.2 18.6 12.3 17.3 6.8-.9 14.1-7.4 23-17.6 2.9-3.3 6-7.7 9.1-12.3-1.6 13.3 5 22.4 16.4 20.8 7.6-1 14-6.6 22.2-15.5 1.1-1.1 1.5-1.5 2.1-1.6.6-.1 1.1.4 1.1 1.5l.4 1.2c1.1 6.1 5.7 8.9 12.3 8 8.1-1.1 17.1-7.1 26.9-19.4 7.9-9.7 11.1-16.7 12.7-21.1 1.9-5.2-5.2-7-8.6-1.5zm-46.5 16.2c-5.7 7.5-11.1 12.3-14.2 12.7-1.9.3-3-1.6-2.7-4.4.9-6.9 12.1-27.6 20.5-37.9 5.7-7.2 11.7-12.2 14.4-12.6 2.1-.3 2.9.9 2.6 3.7-.9 6.2-12.9 28.7-20.6 38.5zM371.4 101.3c-1 .2-2.1.3-3.2.5 10.9-45.2 10-38.5 21.3-67.4 5.5-14.1 4.9-17.3.2-22.7C385 6.4 385.9.5 380.6 0c-12.3-1.1-54.7 59.6-88.9 118.7-16.1 4.8-32.3 10.6-47.1 17.5-9.3 4.3-7.4 12.5-6.5 16.7 1.2 5.9 7.3 8.5 12.1 5.7 7.7-4.5 16.5-8.7 26-12.6-.4.9-26 51.3-32.8 74.5-2.5 8.5 1.6 15.9 8.9 19.2 7.3 3.3 12.2-.2 14.7-11.5 3-14 27.4-70.2 40.7-93.5 11.2-3.6 22.5-6.8 33-9.5 0 .2-8.2 32.6-8.2 49.1 0 9.4 3.5 20.3 13.9 18.8 10.3-1.5 8.6-11.1 9.8-20 2.6-20.4 3-29.2 7.9-52.6.2 0 .4-.5.6-1.1 2.7-.6 5.3-1.2 7.7-1.7 12.9-2.8 16.6-2.7 17.4-12.7.4-6.1-14-4.4-18.4-3.7zm-3.9-64c-7.7 18.7-15.4 43.8-21.9 68.4-7.9 1.5-16.3 3.3-25.1 5.4 15-26.5 31.6-53 47-73.8z"/>
  <path class="st0" d="M387.7 183.3c-6.7.7-21.2-2.6-23.6-14.1-.9-3.7 4.6-13.8 5.8-15.5 2-3 5-1.2 6.1.3 2.3 3.3 14.5 14.2 21.6 7.2 4.6-4.5-2.5-10.5-5.5-15.3-10.9-17.9 3.8-38.5 8.5-43.1 10.1-9.9 17.2-10.7 22.2-10.9 14.4-.5 19.3 7.6 18.2 12.3-1.2 5.2-4 8.3-5.9 10.4-1.4 1.5-5.4 1.9-6.7.1-3.1-4.4-4.8-10.4-13.7-6.8-7.1 2.9-7.5 12.5-6 17.1 2.5 7.5 12.5 13.2 12.5 24-.3 27.8-25 33.4-33.5 34.3z"/>
</svg>
