<svg id="Layer_1" xmlns="http://www.w3.org/2000/svg" viewBox="0 0 283.5 73.7">
  <style>
    .st0{fill-rule:evenodd;clip-rule:evenodd;fill:#EF3E33;} .st1{fill-rule:evenodd;clip-rule:evenodd;}
  </style>
  <path class="st0" d="M8.4 16.5H17V9.8H8.4V7.1H17V.3H0v24h8.4v-7.8zM38.5 17.5H28.3V.4h-8.5v24h18.7v-6.9zM41.2.3h8.7v24h-8.7zM66.3 24.7c3.9 0 7.9-1.2 10.8-3.2l.1-.1V10.9H66.8v5.2h2.6v1.2c-.1 0-.2.1-.2.1-1.2.5-1.7.7-3 .7-4.5 0-6.4-1.6-6.4-5.5 0-4.4 1.9-5.9 7.2-5.9 2.7 0 5.7.7 8.4 2l.7.3V2H76c-1.5-.6-2-.8-3.3-1.2-1.8-.5-4-.8-6.2-.8-8.8 0-14.6 5-14.6 12.3 0 7.3 5.9 12.4 14.4 12.4zM103.4.3h-8.1v8.2h-8V.3h-8.1v24h8.1V16h8v8.3h8.1V.3zM121.8 7.3h7.4v-7h-23.8v6.9h7.4v17.1h9v-17zM207.6 7.3h7.4v17.1h9V7.3h7.4v-7h-23.8v7zM158.9 22.1v-7.6l-.4.4s-2.8 2.8-7 3c-3.2.2-5.3-1.3-6.2-2.2-1.1-1-1.8-2.3-1.8-3.5 0-2.3 2.4-5.6 7.6-5.6 3.4 0 5.6.8 7.2 2.5l.4.4V2.2l-.1-.1c-.8-.5-1.1-.6-2.1-.9-2.3-.8-4.1-1.1-6.6-1.1-3 0-5.6.6-7.8 1.7-4.2 2.1-6.8 6.1-6.8 10.7 0 7.2 5.8 12.2 14.1 12.2 3.5 0 6.3-.7 9.4-2.4l.1-.2zM179 18.3h-9.9v-2.7h9.1V9.5h-9.1V6.4h9.6V.3H161v23.9h18v-5.9zM266.2 15.6h9.1V9.5h-9.1V6.4h9.6V.3H258v23.9h18v-6h-9.9c.1-.3.1-2.3.1-2.6zM206.3.3h-8v11.8c-.7-.8-9.9-11.8-9.9-11.8H181v23.9h8V12.6c.7.8 10.3 11.6 10.3 11.6h6.9V.3zM280.9 3.5c.4-.1.7-.4.7-.9 0-.3-.1-.6-.3-.7-.2-.2-.6-.3-1.1-.3-.4 0-.7 0-1 .1v3.5h.6V3.7h.4c.5 0 .7.2.8.6.1.5.2.8.2.9h.6c-.1-.1-.1-.3-.2-.9-.2-.4-.4-.7-.7-.8zm-.8-.2h-.4V2.1h.4c.6 0 .9.3.9.6 0 .4-.4.6-.9.6z"/>
  <path class="st0" d="M280.3.3c-1.8 0-3.2 1.4-3.2 3.1 0 1.8 1.4 3.2 3.2 3.2 1.8 0 3.2-1.4 3.2-3.2 0-1.7-1.4-3.1-3.2-3.1zm0 5.8c-1.4 0-2.6-1.2-2.6-2.7 0-1.5 1.2-2.7 2.6-2.7 1.4 0 2.6 1.2 2.6 2.7 0 1.5-1.2 2.7-2.6 2.7zM255.9 22.3l-.7-1.6-.6-1.3-.9-2c-1.1-2.3-2.1-3.3-3.2-3.9.5-.3.9-.7 1.2-1l.5-.5c1.3-1.2 2.1-2.9 2.1-4.7 0-2.3-1.3-4.5-3.2-5.8-1.6-1-2.9-1.2-6.4-1.2h-11.9v23.9h7.7V15h.7c1.1 0 1.2 0 1.7.1.9.3 1.2 1 2 2.6l.2.5.9 2 .7 1.5.5 1.1.6 1.4h9.1l-.3-.7c0 .1-.7-1.2-.7-1.2zM244 9.9h-.7-2.7V5.8h2.8c2.3 0 3 .5 3 2-.1 1.4-.9 2.1-2.4 2.1z"/>
  <path class="st1" d="M102.9 49.6c.2-.6.3-1.1 0-1.5-.3-.4-1.2-.5-1.5-.5h-.4c-.4.1-.5.6-.6 1.2-.1.3-.7 2.7-1.2 4.7-.4 1.5-.7 2.8-.8 3-.1.6-.2 1.5 0 2 .2.4.9.8 1.6.8.3 0 .6-.1.8-.2.5-.3.4-.7.4-1.2v-.3c0-.6 0-1.3.2-2.1.2-.7 1.4-5.3 1.5-5.9zM104 58.8c.4 0 .8-.2 1-.4.4-.5.6-1.4.7-2.3.1-.4.1-.7.2-1 .4-1.4 1-2.1 1.8-2.8l.5-.5c1-1.1 2.7-2.1 2.9-2.2.1 0 .2 0 .3.1.3.1.6.2.9.2.6 0 .9-.3 1.1-.9.2-.9.1-1.5-.3-1.9-.3-.3-.7-.5-1.4-.5-1.3 0-3.5 2-4.7 3.3.2-.7.3-1.2.1-1.5-.4-.5-1.1-.7-1.7-.4-.9.4-2.6 6.5-2.8 9.6 0 .4.1.7.3.9.3.2.7.3 1.1.3zM132 56.4c.4 0 .8-.2 1-.4.4-.5.6-1.4.7-2.3.1-.4.1-.7.2-1 .4-1.4 1-2 1.8-2.8l.5-.5c.9-1 2.7-2.1 2.9-2.2 0 0 .2 0 .3.1.3.1.6.2.9.2.6 0 .9-.3 1.1-.9.2-.9.1-1.5-.3-1.9-.3-.3-.7-.5-1.4-.5-1.3 0-3.5 2-4.7 3.3.2-.7.3-1.2.1-1.5-.4-.5-1.1-.7-1.7-.4-.9.4-2.6 6.5-2.8 9.6 0 .4.1.7.3.9.3.1.7.3 1.1.3z"/>
  <path class="st1" d="M113.9 57.3c.2.3.6.5 1 .5 1 0 1.3-1.5 1.6-3 .1-.4.2-.9.3-1.2.4-1.5.9-3 1.4-4.3l1.9-.4c1-.2 1.4-.4 1.9-.8.3-.3.4-.6.4-1 0-.3-.2-.5-.4-.6-.3-.1-.7-.2-1-.2-.2 0-.5 0-.8.1-.3 0-.6.1-1 .2 1.7-3.9 3.1-5.7 4.7-5.8 0 0 .1 0 .2.1l.2.2c.4.2.7.3 1.1.3.9 0 1.3-.7 1.4-1.1.1-.5.1-1-.2-1.4-.4-.5-1.3-.8-2.3-.8-.8 0-1.6.2-2.2.5-3 1.6-5.2 7.1-5.6 8.1 0 .1-.1.2-.1.3h-.2c-.2 0-.7-.1-1.1-.1-.3-.1-.6-.1-.8-.1-.1 0-.3 0-.4.2-.3.3-.4 1-.3 1.4.1.6.5 1.1 1.2 1.2h.5c-1.6 4.4-2.1 6.7-1.4 7.7zm1 .2zM143.4 50.3c.7-.2 2-.5 3.1-.9 1.6-.6 3-1.3 3.8-1.9 1.1-.7 1.4-1.4 1.4-1.8 0-.5-.2-1.1-.7-1.5-.6-.6-1.7-1.3-3.8-1-1.5.2-3 1.1-3.8 1.9-.9.9-1.5 1.8-1.7 2.3-.1.2-.2.4-.2.5-.1.2-.2.5-.3.5 0 0-.1 0-.2.1-.2.1-.6.1-.8.4-.4.5-.5 1.1-.2 1.6.2.4.5.4.7.4v.2c.1.6.2 1.5.8 2.2.7.9 1.8 1.5 3.2 1.6h.5c1.2 0 2.3-.3 3.5-1 1.3-.7 1.7-1.3 2.1-2 .3-.6.3-1.3.1-1.6-.1-.2-.2-.3-.5-.3s-.8.3-1.7 1.1c-.2.2-.4.3-.5.4-.6.4-1.9 1-2.9 1h-.3c-1.2 0-1.5-.4-1.6-.8-.2-.5-.2-1.1-.2-1.3 0 0 .1-.1.2-.1zm.8-2.6c.2-.4.9-1.3 1.5-1.7.7-.6 1.4-.9 2.1-.9.7 0 1.2.3 1.3.5-.3.2-1 .6-2.1 1.1-.6.3-1.9.7-2.8 1zM49.6 47.4c.1.2.2.3.4.4.1 0 .1.1.2.1s.2.1.4.1.4-.1 1-.3c.2-.1.3-.1.4-.2.3-.1.3-.1.8-.2.3 0 .7-.1 1.4-.2.4-.1 1-.1 1.7-.2-.2.6-.3 1.3-.4 1.8v.2c-.2.7-.6 2.3-1 3.7-.2.9-.5 1.7-.6 2.2-.2.6-.4 1.3-.6 2.1-.4 1.4-.9 2.8-1 3.5-.1.9.1 1.5.5 2 .2.2.7.5 1.2.5.2 0 .4-.1.6-.2.1-.1.1-.1.2-.1.3-.3.4-.4.3-1.3 0-.9.4-2.3 1-4.2l.1-.3c.7-2.2 2.6-8.8 2.7-9.4 0-.2.1-.4.1-.5 0-.1.1-.3.1-.4 1-.2 2-.3 2.9-.5-.3.4-.6 1.5-1.1 3.2-.1.4-.3 1.3-.6 2.3-1.2 4.5-2.4 8.9-2.3 9.7.1.7.6 1.1 1.1 1.1.4 0 .7-.1.9-.4.2-.3.5-.7.8-1.2.3-.4.5-.8.8-1.2.1-.2.3-.4.4-.6.5-.8 1.2-1.7 1.9-2.5 1.5-1.8 2.3-2.7 2.6-2.9 0 .2-.2.8-.7 2-.5 1.2-.9 3.1-1 4 0 .7.4 1.7.8 2.1.2.2.4.3.6.3.6-.1 1.2-.8 1.2-1.5 0-1.1.1-1.9.3-2.5.3-.8 1.2-3.4 1.4-4.8.1-.7-.1-1.4-.5-1.8-.4-.4-.9-.6-1.5-.6-1.3 0-3.6 2.4-4.5 3.6-.2.3-.4.6-.6.8-.2.3-.5.6-.6.8.2-.6.5-1.9.9-3.1.8-2.7 1.4-4.7 1.4-5 .1-.6.1-1.2-.3-1.5-.1-.1-.3-.2-.5-.3.9-.1 1.6-.3 1.8-.3.6-.1 1.2-.3 1.6-.9.3-.4.6-1.4.2-1.8-.1-.1-.3-.1-.5-.1-.8 0-2.6.4-3.6.6h-.1c-.8.2-2.4.4-4 .6-1 .1-1.9.3-2.6.4-.7.1-1.3.2-1.9.2-.7.1-1.3.1-1.9.3-1.1.3-1.6.8-1.8 1.2-.5.3-.6.8-.5 1.2zM75.2 49.7c-1.5.2-3 1.1-3.8 1.9-1 1-1.5 1.9-1.7 2.2-1.1 2-1.2 4.8-.3 6.1.7.9 1.7 1.4 3.1 1.5h.5c1.2 0 2.3-.3 3.5-1 1.3-.7 1.7-1.3 2.1-2 .3-.6.3-1.3.1-1.6-.1-.2-.2-.3-.5-.3s-.7.3-1.5.9c-.2.2-.4.3-.6.5-.7.5-1.7.9-2.9 1.2-.8.2-1.4-.1-1.8-.7-.2-.5-.1-1.2-.1-1.5.1 0 .1 0 .3-.1.6-.1 1.7-.4 2.8-.8 1.5-.6 3-1.3 3.8-1.9.9-.6 1.4-1.2 1.4-1.8 0-.5-.2-1.1-.7-1.5-.5-.7-1.6-1.4-3.7-1.1zm-1.5 2.8c.7-.6 1.4-.9 2.1-.9.7 0 1.2.3 1.3.5-.3.2-1 .6-2.1 1.1-.6.3-2 .7-2.9 1 .4-.4 1-1.3 1.6-1.7zM217 32.1c-.2-.7-1-.9-1.4-.9-.4 0-.6.7-.9 1.5l-.5 1.5c-.2.7-.5 1.4-.6 1.8-.2.8-.6 1.8-.7 2 0 .1-.3.2-1.4.5h-.4c-.1 0-.3-.1-.5 0-.1 0-.2.1-.3.2-.2.3-.2 1-.1 1.4.1.6.6.9 1.3 1 .3 0 .4-.1.5-.1-.1.2-.2.5-.3.7-.1.2-.1.4-.2.6l-.2.5c-.2.6-.5 1.3-.7 2.1-.3 1-.6 2.4-.5 3 .1.6.7 1.3 1.4 1.3.2 0 .4-.1.6-.1.5-.3.5-.7.6-1.5v-.4c.1-1.1.4-2.2.7-3.4.3-1.2 1.1-3.3 1.2-3.5.1-.2.8-.5 1.1-.6.2-.1.3-.1.4-.1.2-.1.2-.1.8-.3.9-.4 1.3-.6 1.7-1.1.2-.3.3-.6.2-.9-.1-.2-.2-.4-.4-.5-.3-.1-1-.1-1.7.1-.2 0-.4.1-.5.2-.2.1-.5.2-.7.2.1-.5.6-2.2 1-3.1.5-.9.7-1.5.5-2.1zM191.6 45.9c.6-.1 1.7-.4 2.7-.8 1.5-.6 3-1.3 3.8-1.9.9-.6 1.3-1.2 1.3-1.7s-.2-1-.6-1.4c-.5-.5-1.3-1-2.9-1h-.8c-1.5.2-3 1.1-3.7 1.9-1 1-1.5 1.9-1.7 2.2-1.2 2.2-1.1 4.8-.3 5.9.6.9 1.6 1.3 2.9 1.4h.5c1.1 0 2.3-.3 3.5-1 1.2-.7 1.7-1.2 2.1-1.9.3-.6.3-1.2.1-1.5-.1-.2-.2-.2-.3-.3-.3 0-.7.4-1.4.9-.2.2-.4.3-.6.4-.7.5-1.8 1-3 1.2-.2 0-.3.1-.5.1-.6 0-1.2-.3-1.5-.9-.3-.6-.1-1.5 0-1.6.1.1.3.1.4 0zm.3-2.1c-.1-.2.9-1.5 1.7-2.1.8-.6 1.5-.9 2.2-.9.9 0 1.5.5 1.5.7-.2.2-1.1.6-2.3 1.2-.7.3-2.2.8-3 1.1 0-.1 0-.1-.1 0zM207.9 38c-1.3 0-3.7 2.3-4.7 3.5l-.2.2c0-.1.1-.4.1-.5.2-.7.3-1.2.1-1.4-.4-.5-.9-.6-1.5-.3-.8.4-2.5 6.2-2.7 9.4 0 .3.1.6.3.8.2.2.5.3.9.3s.7-.1.9-.4c.4-.4.5-1.3.7-2.2.1-.4.1-.7.2-1 .4-1.4 1-2.1 1.8-2.9l.5-.5c1-1 2.7-2.2 3-2.2.1 0 .2 0 .4.1.3.1.6.2.9.2.5 0 .8-.3.9-.8.1-.8.1-1.4-.2-1.8-.4-.4-.8-.5-1.4-.5zM223.2 38.8c.3.2.7.3 1.1.3h.1c1 0 1.8-.5 1.9-1.1.1-.6-.4-1.1-1.3-1.2-.4-.1-.9-.1-1.3-.1-2 0-4.4.9-4.9 2.3-.7 2.1.7 3.4 2 4.6.6.6 1.1 1.1 1.5 1.7.1.2.2.4.1.6 0 .1-.1.2-.2.2s-.3.1-.4.1c-.4 0-.8-.1-1.2-.3-.4-.1-.9-.3-1.4-.3-.3 0-.6.1-.9.2-.5.4-.5.8-.4 1 .3.9 2.3 1.4 4 1.4 1 0 1.9-.2 2.4-.6.6-.4.9-.9 1-1.4.1-1.1-.9-2.2-1.7-3.2l-.2-.3c-.2-.2-.3-.4-.5-.5-.8-.7-1.7-1.6-1.3-2.6 0-.5.6-.7 1.6-.8zM175.6 45.2c1.3-1.2 2.6-2.5 2.5-3.6 0-.4-.3-.8-.7-1.1-.1-.1-.2-.1-.3-.1-.5 0-.9.5-1.6 1.4-.6.7-1.3 1.5-2.3 2.4-.2-.5-.4-.9-.5-1.3-.5-1.4-.8-2.2-2.5-2.3h-.1c-.4 0-.6.2-.7.3-.4.6.1 1.8 1.1 3.6.3.6.6 1.2.8 1.7-.4.5-.9.9-1.3 1.3-1.5 1.6-2.7 2.7-1.4 4.2.1.1.3.2.4.2.6 0 1.4-.9 2.5-2.3.3-.4.6-.7.8-1 .3.6.7 1.3 1.1 2 .6 1.1 1 2 1.3 2.3.1.2.3.3.5.3s.5-.2.7-.5c.4-.5.7-1.4.6-2-.1-.5-.6-1.3-1.1-2.2-.4-.7-.8-1.4-1.1-2.1.4-.3.8-.7 1.3-1.2z"/>
  <path class="st1" d="M180.2 51.8c.6-.2 1.1-.3 1.7-.5 1.5-.4 2.9-.8 4.1-1.7 2.3-1.8 3.2-4.6 2.2-7-.8-2-2.8-3-5.3-2.8-.1 0-.3-.1-.6-.1-.4-.1-.9-.3-1.3-.1-.3.1-.5.5-.6.9-.2.1-.3.1-.5.2-.7.3-1.5.6-1.5 1.8.2.4.6.4 1 .3.3 0 .5 0 .5.1-.1.5-.4 1.6-.7 3-.9 3.7-3.2 13.5-3.6 15.2v.4c.4.5.8.8 1.2.8h.2c.4-.1.6-.4.9-1 .6-2.8 1.9-8 2.3-9.5zm2.1-9.5c1.5-.3 2.7-.1 3.3.7.6.8.6 2.2-.1 3.4-.7 1.4-2.4 2.8-4.7 2.7v.1h-.1c.5-1.8 1.3-5.4 1.6-6.9zM130.3 49.9c.1-.3.2-.5.3-.8.1-.4.3-.8.5-1.2.2-.5.4-.9.4-1.2.1-.5.2-1-.5-1.3-.5-.3-.8-.1-1.1 0-.1 0-.1.1-.2.1 0 0-.1 0-.2-.1s-.2-.3-.4-.4c-.2-.1-1-.4-2.1.1-.9.4-2.2 1.3-3.3 2.4-1.4 1.2-3.3 4.1-3.5 4.5-.6 1-1 2.4-.8 3.2.2.8.9 1.6 1.6 1.9.2.1.6.1.9.1.7 0 1.5-.2 2-.5.7-.4 1.6-1.4 2.2-2l.2-.2c.5-.5.8-.9 1-1.1v.5c.1 1.1.1 2.1.4 2.5.5.7 1.2.7 1.6.6.3-.1.5-.3.5-.6s0-1.3-.1-2.2c0-.8-.1-1.6-.1-1.8 0-.8.4-1.7.7-2.5zm-8.4 4.7c-.2-.3.2-1.1.3-1.3 0-.1 0-.1.1-.1.1-.3.9-1.4 1.6-2.4.8-1.1 1.8-2.2 2.5-2.7.9-.7 1.6-.8 1.7-.8.1 0 .1.1.1.1.2.6-1.4 3.1-2.5 4.5-.8.8-2.8 3-3.6 3-.1-.2-.2-.3-.2-.3zM156.6 52.1c.6 1.2 1.7 2 3.1 2.2h.8c1.8 0 3.3-.8 5.9-2.2l.6-.3c.6-.4 1.1-1.4 1.2-2.2 0-.4-.1-.7-.3-.9-.1-.1-.2-.1-.3-.1-.5 0-1.3.5-2.3 1.1-1.2.7-2.5 1.5-3.6 1.8-1.3.3-2.2.1-2.6-.5-.8-1.4.5-4.3 1-5.3 3.1-.9 6.6-2.1 8.6-4.1l.1-.1v-.1c-.2-.7-.5-1.1-1.1-1.1-.4 0-.7.2-1.1.3l-.2.1c-1.6.7-3.7 1.5-5 1.9l.6-1.5c.3-.7.6-1.5.9-2.1.1-.2.2-.3.2-.5.1-.4.3-.7.6-.9 1.6-.7 3.6-1.4 5.5-1.8h.1v-.1c0-1-.2-1.3-.8-1.7h-.1c-1 .1-9.6 2-9.9 3.3-.1.3.1.7.3 1 .4.4.9.6 1.5.5-.4.7-.7 1.5-1 2.3-.4 1-.8 2-1.3 2.9-.3.1-.5.1-.7.2-.4.1-.7.1-1 .4l-.1.1v.1c.1.7.4 1.1.7 1.5.1.1.2.3.3.4-1.2 1.5-1.4 3.8-.6 5.4zM97 60.6c1.4-.3.9-1.6.7-2.9-.6-4-.2-15.4-.3-19.2-.6-.3-1.8-.2-2.3 0-.4.2-2 4.4-2.7 5.8-1.5 3.2-2.2 4.4-3.8 7.5-.6.4-2.3.2-2.5.8-.6.7 1 .9 1.3 1.4-.6 1.5-4 6.4.2 6.2.9-2.4 1.4-4.9 3-6.9 1.3-.3 2.9-.7 4.3-.9.1 2.7.2 5.2 0 7.7.9.2 1 .7 2.1.5zm-1.9-10.1c-.7.1-2.4.3-3.4.6.9-2.2 2.5-5.1 3.6-7.4.1 1.8-.1 4.8-.2 6.8z"/>
  <path d="M226 56c-.3 0-12.1-.2-17.7-.1-11.8.2-23.7 1.1-35.4 1.6-40.5 1.8-82 6.4-121.5 13.7l-.9.2c-1.1.3-1.6 1-1.5 1.6.2.6 1.2.8 2.3.5.2-.1 1.1-.3 1.3-.4 24.6-4.6 65.2-11.1 120.3-13.6 11.7-.4 23.6-1.3 35.3-1.6 5.4-.1 15 0 15.9.2.9.2 1.8.6 2.5.6 1.1 0 1.4-.5 1.4-1.3.1-.7-.9-1.5-2-1.4"/>
  <g>
    <path d="M104.4 44.5c.2 1.2-.5 2.2-1.5 2.4-.6.1-1.2-.4-1.4-1.1-.2-1 .5-2 1.5-2.2.6-.1 1.3.3 1.4.9z"/>
  </g>
</svg>
