<svg xmlns="http://www.w3.org/2000/svg" width="400" height="198.332">
  <path d="M291.327 133.082c-13.26 37.582-49.55 64.75-92.04 64.75-42.718 0-78.958-26.882-92.014-64.897l4.957-1.71 4.998-1.693c11.952 33.58 44.118 57.223 82.035 57.223 37.794 0 70.116-24.01 82.166-57.362l9.897 3.69zM107.273 66.435C120.525 28.158 156.813.5 199.303.5c42.745 0 78.968 27.39 92.024 66.1l-4.957 1.74-4.998 1.72c-11.96-34.212-44.126-58.287-82.035-58.287-37.81 0-70.132 24.46-82.166 58.425l-9.897-3.763zM223.47 90.822l-.328-12.492m.647 12.492c5.02 0 9.12 4.098 9.12 9.12 0 5.04-4.1 9.14-9.12 9.14-5.04 0-9.147-4.1-9.147-9.14 0-5.022 4.106-9.12 9.146-9.12m53.025-.033l-.14-12.46m.41 12.492c5.03 0 9.13 4.098 9.13 9.12 0 5.04-4.1 9.14-9.13 9.14-5.048 0-9.138-4.1-9.138-9.14 0-5.022 4.09-9.12 9.138-9.12m121.244 14.83l.637-.572.532 12.132c.13 2.912-10.98 7.24-17.156 2.74-6.184-4.49-6.323-9.693-6.323-16.532h-29.065c3.125 8.254 13.04 7.37 15.805 3.215l12.058 1.955c-4.458 13.948-16.377 15.756-27.814 12.042-5.783-2.83-9.268-6.26-11.878-12.19v13.867h-14.17c0-8.517.018-18.187-.097-26.85-.46-5.645-9.507-5.178-9.507.335v26.514l-14.03.203h-9.644l-.01-8.393c-.008-3.338-3.812 8.688-8.36 8.393-9.833.72-17.768-4.36-21.916-13.18v12.976h-14.43v-12.976c-4.19 8.418-15.175 13.85-25.94 11.126l-1.596-.67s.45 14.945.45 18.806H201.48v-38.22c.36-18.03 19.822-28.73 34.612-17.99 3.125 2.554 5.072 5.122 6.872 8.722v-30.12h14.43v30.12c4.68-9.612 13.727-14.25 24.362-12.484 7.886 2.176 12.484 6.054 15.658 13.417 4.008-11.747 15.134-16.55 26.685-12.49 5.823 2.74 8.956 6.453 11.026 12.49 5.268-11.518 16.68-16.5 28.632-12.27 5.964 2.748 9.76 6.233 12.263 12.27V69.635h13.948v8.802h8.827v12.91h-8.827c0 4.368-.703 8.777.655 12.884 1.333 2.863 5.137 3.51 7.706 1.423m-43.595-27.266l.515 12.287m-8.393 6.463h17.482c-2.758-8.94-15.103-8.573-17.483 0m-312.94-6.512l.148-12.295m.4 12.238c5.04 0 9.138 4.107 9.138 9.138 0 5.04-4.098 9.137-9.137 9.137-5.03 0-9.113-4.098-9.113-9.137 0-5.03 4.082-9.138 9.113-9.138m148.992 34.522V78.2H169.28v26.815c0 4.85-7.1 4.892-7.1 0V78.2H148.03V60.986h-14.422V92.04c-4.638-9.93-13.4-15.044-24.394-13.497-7.895 1.75-13.507 6.135-16.542 13.498-2.732-8.736-9.186-13.358-18.177-13.84-9.538 0-16.64 4.662-19.502 13.84-4.81-10.585-14.43-15.698-25.89-13.105-6.88 2.152-11.045 5.792-14.17 12.173v-30.12H.5v61.32h14.43v-13.76c4.1 8.214 10.946 12.746 20.117 12.926 9.75-.572 16.01-5.21 19.944-13.85v14.685h13.89V95.843c.54-5.767 9.32-5.947 9.85 0v26.465h13.94v-13.867c3.207 7.108 8.246 11.395 15.797 13.326 16.54 1.578 23.102-9.81 23.192-12.665l-11.945-1.808c-6.037 4.573-12.94 2.2-15.125-3.877h29.016v18.89h14.422v-9.704c2.39 9.613 14.26 12.885 21 5.678 0 2.12-.22 4.605-.876 6.634-2.167 5.195-9.39 5.195-13.13 1.718l-8.507 10.987c5.432 4.278 10.913 6.348 17.932 5.685 5.775-.58 9.448-1.595 13.858-5.563 3.345-3.738 4.94-7.632 5.153-12.655m-61.444-27.233c-2.855-9.18-14.98-9.015-17.735 0h17.734z" fill="#2a3e92" fill-rule="evenodd"/>
</svg>
