<svg id="Layer_1" xmlns="http://www.w3.org/2000/svg" viewBox="0 0 250 60">
  <style>
    .st0{fill:#002B5C;} .st1{fill:#ED1C24;}
  </style>
  <g id="g10">
    <path id="path22" class="st0" d="M195.2 22.1l-.2.8h3.8c2.5 0 4 .2 4.2 1.8.1 1-.4 2-.6 3s-.5 1.9-.8 2.8c-.2 1-.6 1.9-1.1 2.5-.6.8-1.4 1.2-2.1 1.4-1.1.2-5.5.1-6.6.1l-.4 1.1c3.5.1 7 0 10.6 0 1.1 0 2.4.1 3.4 0 1.6-.4 2.8-1.4 3.2-2.9.5-1.4.9-3.1 1.4-4.6.2-.9.4-1.6.8-2.2s.9-1.1 1.4-1.6c1.1-.9 2.9-1.6 4.6-.8.9.4 1.4 1.1 1.4 2.4 0 1.1-.4 2-.6 3-.9 3-1.6 5.5-2.4 8.5-.2 1-.5 2-.9 2.9-.6 1.6-2.1 2.9-4.1 3.2-1.6.2-3.5 0-5.2 0h-15.6l-.4 1.1c6.9.1 14 0 20.6 0 1.9 0 3.5 0 5.1-.1 4.5-.5 8.5-1.8 11.9-3.5 5.5-3 9.9-7.1 13-12.5 1.9-3.1 4.9-5.4 9.9-5.4.1-.4.2-.5.4-.9h-54.7z"/>
    <path id="path26" class="st0" d="M68.8 15.2h6.4L67 44.4h-6.2c2.4-9.8 5.2-19.4 8-29.2"/>
    <path id="path30" class="st0" d="M0 44.5v-.1C2.2 36.7 4.2 29 6.5 21.5h21.4c1.2 0 2.4 0 3.2.2 2.6.8 4.5 3.2 3.8 6.5-.4 1.9-1 3.8-1.5 5.5-.8 2.8-1.5 5.5-2.2 8.1-.2.9-.4 1.9-.9 2.8-2 0-4.2.1-6.2 0 1.1-4.2 2.6-9.5 4-14 .2-.8.5-1.5.4-2.1-.1-2.1-2.6-1.9-4.9-1.8-1.5 5.2-3 10.6-4.4 15.8-.2.8-.4 1.5-.8 2.2-2 0-4.2.1-6.2 0 1.6-6 3.4-11.9 5-18h-5.8c-1.6 5.8-3.2 11.8-5.1 17.8H0"/>
    <path id="path34" class="st0" d="M41.2 21.4h9.6c3.5 0 6.2-.2 8.4 1.2 1.2.9 2.1 2.2 2.2 4.2 0 1.6-.5 3.1-.9 4.6-1.2 4.2-2.5 8.9-3.6 13h-10c-3.2 0-7.4.4-9.5-.8-1.2-.6-2.2-1.9-2.4-3.5-.2-2.2.6-4.2 1.6-5.6 1-1.5 2.4-2.6 4-3.2 3.6-1.5 9-.5 14-.8.4-.9.8-2.2.2-3.1-.8-1.6-4.2-1.1-6.8-1.1h-7.9c.3-1.7.7-3.3 1.1-4.9m3.6 14c-1.9.1-3.1 1.2-3 3.4.2.6 1 .9 1.9 1 2.4.1 5.8-.1 8.2 0 .4-1.4.8-2.9 1.2-4.2-2.6-.1-5.9-.5-8.3-.2"/>
    <path id="path38" class="st0" d="M77.9 21.4h10c1.8 0 3.5-.1 4.9.1 3.4.5 5.8 2.8 5.2 6.5-.2 1.9-1 3.9-1.5 5.5-1 3.8-2 7.4-3.1 10.9H82.9c-3.4 0-7.4.4-9.5-.9-1.1-.6-1.9-1.9-2-3.4-.1-2.2.8-4.1 1.6-5.6 1-1.5 2.2-2.6 4-3.2 3.8-1.5 9.1-.5 14-.8.4-.9.8-2.2.2-3.1-.8-1.6-4.2-1.1-6.8-1.1h-7.9c.5-1.7.9-3.3 1.4-4.9m3.3 14c-.5 0-1.1.2-1.6.4-.8.4-1.8 2-1.4 3 .2.5 1 .8 1.8.9 2.6.2 5.6-.1 8.4 0 .4-1.4.9-2.9 1.2-4.2-2.6 0-5.6-.4-8.4-.1"/>
    <path id="path42" class="st0" d="M103.5 21.4h6.2c-1 3.8-2.4 8.4-3.5 12.5-.4 1.4-1.2 3.5-.5 4.6.6.9 2.1.8 3.9.8h4.5c1.8-5.9 3.4-12 5.1-18h6.4c-2.2 8.1-4.6 16.8-7 24.8-.6 2.1-1.5 3.6-3 5-1.4 1.2-3.1 2.4-5.1 2.9-2.1.6-5 .4-7.8.4h-8c.4-1.6.9-3.2 1.4-4.9h6c2.1 0 4.2.1 6 0 1.6-.1 3-1 3.6-2.1.5-.9.6-1.9.9-3-5.1-.1-11.2.8-13.2-2.4-.4-.5-.6-1.4-.8-2.1-.1-1.6.5-3.4.9-4.9 1.2-4.4 2.6-9.1 3.8-13.5.1 0 .1 0 .2-.1"/>
    <path id="path46" class="st0" d="M151.6 21.4c-.5 1.6-.9 3.2-1.4 4.9h-11.4c-1.4 0-2.6-.1-3.5.4-1 .5-1.6 1.6-1.6 3 .4.9 1.5 1 2.5 1h3.5c2.4 0 4.8-.1 6.4.6s2.6 2.4 2.5 4.9c-.1 2.2-1.4 4.4-2.8 5.8-1.5 1.5-3.2 2.4-6 2.6s-5.8 0-8.6 0h-8.6c.2-1.5.9-3.2 1.4-4.9h12.8c1.5 0 2.8 0 3.6-.5.8-.4 1.6-1.8 1.2-2.9-.5-1.4-4.1-.9-6-.9-2.4 0-4.8.1-6.2-.6-1.8-.8-2.8-2.2-2.6-4.9.1-1.2.5-2.4 1-3.2 1.4-2.9 4.1-4.9 8-5.1 2.6-.1 5.2 0 7.9 0h8v-.2z"/>
    <path id="path50" class="st0" d="M155.8 21.4h6.2c-2.1 7.8-4.2 15.4-6.5 23-1.8.1-4.4 0-6.2 0-.1-.2 0-.5 0-.8 2-7.2 4.2-14.9 6.2-22.2.3.1.3 0 .3 0"/>
    <path id="path54" class="st0" d="M166.5 21.4h12.9c4.1 0 7.1 1.5 7.2 5.5 0 1.6-.5 3.1-.9 4.6-1.2 4.2-2.4 8.6-3.6 12.9-3.2.1-6.8 0-10.2 0-3.2 0-7.4.4-9.5-.8-.8-.4-1.5-1.1-1.9-2-1-2.1-.1-4.6.8-6.2.9-1.8 2.2-3.1 3.9-3.9 3.9-2 9.8-.8 14.6-1 .4-.9.8-2.2.2-3.1-.8-1.6-4.2-1.1-6.8-1.1h-7.9c.4-1.6.9-3.1 1.2-4.6-.1-.2-.1-.2 0-.3m3.4 14c-.5 0-1.1.2-1.6.4-.9.5-1.8 2.1-1.4 3.1.2.5 1 .8 1.8.8 2.6.1 5.6-.1 8.2 0 .4-1.5.9-2.9 1.2-4.2-2.5 0-5.5-.4-8.2-.1"/>
    <path id="path58" class="st0" d="M146 46.7c-1 4.4-2.5 8.8-3.6 13.2h-1.9c1.2-4.4 2.5-8.8 3.6-13.1.5-.2 1.3-.1 1.9-.1"/>
    <path id="path62" class="st0" d="M121.5 49.6h4.2c2.1 0 4.2-.2 4.8 1.2.4 1.1-.2 2.2-.5 3.2-.5 1.9-1.1 4-1.6 6-2.1-.1-4.8.1-6.9 0-1.4-.1-2.5-.9-2.5-2.2 0-1.2.8-2.6 1.5-3.2 1.8-1.4 4.9-.8 7.6-.9.1-.6.6-1.4.4-2-.2-.9-2.1-.6-3.5-.6h-4c.1-.6.2-1.1.5-1.5m.5 5.9c-.5.4-1.2 1.2-1 2.1.4 1.5 4.1.6 5.9.9.2-.8.5-1.8.8-2.5.1-.2.2-.6.1-.8-1.7.2-4.6-.5-5.8.3"/>
    <path id="path66" class="st0" d="M134.9 49.6c-.9 3.5-1.9 6.9-2.9 10.4h-1.9c1-3.5 1.9-6.9 2.9-10.4h1.9z"/>
    <path id="path70" class="st0" d="M135.6 60h-1.9c.4-1.6 1-3.8 1.6-5.8.5-2 1-3.9 3-4.5 1-.4 2.2-.1 3.6-.1-.1.5-.2 1-.5 1.5h-2c-1.6.2-1.9 1.8-2.2 3.2-.4 1.8-1.2 4.3-1.6 5.7"/>
    <path id="path74" class="st0" d="M148.9 49.6c-1 3.5-1.9 6.9-2.9 10.4h-1.9c1-3.4 1.9-6.8 2.9-10.2 0-.1 0-.1.1-.1h1.8z"/>
    <path id="path78" class="st0" d="M150.8 49.6c3.4.4 8.8-1.2 8.5 2.5 0 .6-.2 1.4-.5 2-.5 1.9-1.1 4-1.6 5.9h-1.9c.4-1.6 1.1-4 1.6-5.9.2-.9.6-2 .1-2.6-.9-.9-3.2-.2-4.9-.4-.9 2.9-1.6 5.9-2.5 8.9h-1.9c1.1-3.5 2.1-7 3.1-10.4"/>
    <path id="path82" class="st0" d="M170.4 49.6l-.4 1.5c-1.5.1-2.9-.1-4.1 0-1.9.1-2.9 1.5-3.5 2.9 2.1.1 4.4 0 6.6 0-.1.5-.2 1-.4 1.4H162c-.2.5-.4 1.4-.1 1.9.5 1.9 4 1 6 1.1.1.5-.2 1-.4 1.5-3.1-.1-6.2.5-7.4-1.4-1.4-2.4.5-6.1 2.1-7.5.9-.8 2-1.4 3.1-1.4 1.7-.2 3.2.1 5.1 0"/>
    <path id="path86" class="st0" d="M181.1 49.6l-.4 1.5c-1.9.2-5-.5-6.5.2-.6.2-1.5 1.2-1 2.1.5 1 4.2.2 5.4.8 1.6.8 1.5 3 .5 4.2-.5.8-1.5 1.4-2.6 1.4-2.2.2-5.1-.1-7.5 0 .1-.5.2-1 .5-1.5 2.2-.2 6.9.6 8-.8.4-.4.5-1.1.2-1.8-.6-1.2-4.8-.1-6-1-.5-.4-.9-1.1-.8-2 .2-1.8 1.9-3.2 3.8-3.4 2.1.2 4.2.4 6.4.3"/>
    <path id="path90" class="st1" d="M250 21.5c-3.9.1-6.8-1.6-7-5v-2c-.2-1.9-.6-3.5-1.2-5-2.5-5.8-7.5-8.9-15.4-9.6h-24.8c0 .4-.2.8-.2 1.1h16c1.8 0 3.6-.2 5.1.1 1 .2 2.1 1.1 2 2.8 0 .9-.4 1.8-.8 2.8-.8 2.6-1.4 5.2-2.2 7.9-.5 1.8-.9 3.5-1.9 4.9-1 1.1-2.8 2.2-4.9 1.8-.8-.2-1.2-.5-1.6-1-.9-1.2-.1-3.2.4-4.6.2-.8.5-1.5.6-2.1.2-.6.5-1.5.5-2.2 0-1.2-.8-1.9-1.5-2.1-.9-.2-2.2-.1-3.5-.1h-10.8c-.1.4-.2.6-.2 1.1 3.1 0 8-.4 8 2.1 0 .6-.2 1.2-.4 1.9-.4 1.1-.6 2.2-1 3.4-.1.6-.2 1.1-.5 1.8-.6 1.4-1.2 2.5-3.5 2.5h-6l-.1.5h54.5c.3-.6.3-.8.4-1"/>
  </g>
</svg>
