<svg id="Layer_1" xmlns="http://www.w3.org/2000/svg" viewBox="0 0 200 26">
  <style>
    .st0{fill:#FCB130;} .st1{fill:#1D4886;}
  </style>
  <title>
    Layer 1 copy
  </title>
  <path class="st0" d="M174.7 26l.9-1.1H.3V26M185.1 23.6s3.4-5.1 3.7-5.6c.4-.6.4-1.6 0-2.2-.2-.3-5.3-8.6-5.3-8.6-.5-.9-.4-1.5-.1-2 .5-.8 1.1-1.7 1.1-1.7s6.1 9.7 6.3 10.1c.7 1.1.5 2.2-.1 3.2-.5.8-4.4 6.7-4.4 6.7"/>
  <path class="st0" d="M183.3 24.6s4.2-6.2 4.6-6.7c.4-.6.3-1.4 0-1.9-.2-.3-5.6-8.8-5.6-8.8s-.8 1.2-1.1 1.7c-.3.4-.5 1 .1 2 0 0 4 6.3 4.2 6.6.3.5.3 1.5-.1 2.1-.3.5-4.4 6.5-4.4 6.5h11.8c1.2 0 1.9-.5 2.5-1.3.5-.7 2.4-3.5 2.8-4 .3-.5.9-.7 1.1-.7h1l-1.8-2.8H196c-.6 0-1.2.5-1.6 1-.2.4-2.2 3.4-2.6 3.8-.2.3-.5.5-.8.5h-.7c.1-.2 3.5-5.2 4.2-6.3.8-1.3 1-3 0-4.7-.5-.7-7.4-11.6-7.4-11.6s-.8 1.3-1.2 1.8c-.3.5-.3 1.1.2 2 0 0 5.8 9.3 6.1 9.7.7 1 .6 2.4 0 3.4-.5.8-4.5 6.8-4.5 6.8h3c1.1 0 1.5-.4 1.7-.8.3-.4 2.2-3.2 2.4-3.5.2-.3.7-1 1.4-1h2.2v.5c-.9.1-1.3.4-1.6.8-.3.4-2.6 3.7-2.9 4.1-.3.4-.6.9-1.5.9"/>
  <path class="st1" d="M.1 20.2H6c2.3 0 3.4-1.5 3.4-3s-1.1-3-3.4-3H3.1c-.6 0-1-.4-1-1.1 0-.7.4-1.1 1-1.1h6.2v-2H3.4C1.1 10 0 11.3 0 13s1.1 3 3.4 3h2.8c.7 0 1.1.4 1.1 1.1 0 .7-.4 1.1-1.1 1.1H.1M38.4 20.2h-4.5c-3.8 0-5.7-2.7-5.7-5.1 0-2.4 1.9-5.1 5.7-5.1h4.6v1.9h-4.8c-1.9 0-3.2 1.1-3.2 3.1 0 2.1 1.3 3.2 3.2 3.2h2.6v-4.7h2.2M11.7 10h2.2v10.1h-2.2zM18.9 11.9v8.3h-2.2V10h2.2v1.7l1.3-1.7h2.9c2 0 3.2 1.4 3.2 3.2v6.9H24v-6.7c0-.8-.6-1.6-1.5-1.6M82.8 16.4l3.2 3.8h-2.7l-4.4-5.3h2.7c.8 0 1.4-.8 1.4-1.5s-.5-1.5-1.4-1.5h-3.5v8.3h-2.2V10h5.8c2 0 3.3 1.5 3.3 3.3 0 1.4-.9 2.7-2.2 3.1M89.7 11.9v2h5.2v1.8h-5.2v2.6h5.9v1.9h-8.2V10h8.2v1.9M58.7 10h-5.8v10.1h2.2v-4.9l1.3 1.7h2.3c2 0 3.3-1.6 3.3-3.5 0-1.7-1.3-3.4-3.3-3.4m-.1 5.1h-3.5v-3.2h3.5c.8 0 1.3.8 1.3 1.6s-.5 1.6-1.3 1.6M68.7 9.6c-3 0-5.5 2.5-5.5 5.5s2.5 5.5 5.5 5.5c3.1 0 5.5-2.5 5.5-5.5 0-3.1-2.4-5.5-5.5-5.5m0 9c-1.9 0-3.4-1.5-3.4-3.5 0-1.9 1.5-3.5 3.4-3.5s3.5 1.6 3.5 3.5-1.6 3.5-3.5 3.5M46.8 10h-2.3l-5 10.1H42l1.3-2.9H48l1.3 2.9h2.4m-7.8-4.3l1.7-4.1 1.7 4.1h-3.4zM166.9 20.1h5.9c2.3 0 3.4-1.5 3.4-3s-1.1-3.1-3.4-3.1h-2.9c-.7 0-1.1-.4-1.1-1.1 0-.7.4-1.1 1.1-1.1h6.1V10h-5.9c-2.3 0-3.4 1.3-3.4 3s1.1 3 3.4 3h2.8c.7 0 1.1.4 1.1 1.1 0 .7-.4 1.1-1.1 1.1h-6.1M113.6 10h2.2v10.1h-2.2zM139.4 10h2.2v10.1h-2.2zM146.6 11.9v8.3h-2.2V10h2.2v1.7l1.3-1.7h2.9c2 0 3.2 1.4 3.2 3.2v7h-2.2v-6.7c0-.8-.6-1.6-1.5-1.6h-3.7M125.8 16.4l3.2 3.8h-2.7l-4.4-5.3h2.7c.8 0 1.3-.8 1.3-1.5s-.5-1.5-1.3-1.5h-3.5v8.3h-2.2V10h5.8c2 0 3.3 1.6 3.3 3.3 0 1.4-.8 2.7-2.2 3.1M158.8 11.9v2h5.2v1.8h-5.2v2.6h6v1.9h-8.2V10h8.2v1.9M132.7 10v8.3h5.2v1.9h-7.5V10M107.3 10H105l-5 10.2h2.4l1.3-2.9h4.7l1.3 2.9h2.5m-7.8-4.5l1.7-4.2 1.7 4.1-3.4.1z"/>
</svg>
