<svg xmlns="http://www.w3.org/2000/svg" baseProfile="basic" viewBox="0 0 150 25">
  <path fill="#FFF" d="M14.33 12.167c1.144 3.1 4.594 4.69 7.697 3.547 3.1-1.15 4.692-4.597 3.543-7.7-1.146-3.107-4.59-4.692-7.698-3.546-3.105 1.15-4.69 4.594-3.543 7.7z"/>
  <circle fill="#FFF" cx="6.667" cy="10.068" r="5.992"/>
  <path fill="#BE3538" d="M7.688 10.004c0 .61-.496 1.11-1.107 1.11-.612 0-1.107-.5-1.107-1.11 0-.61.495-1.104 1.108-1.104.612 0 1.108.495 1.108 1.104z"/>
  <path fill="#589442" d="M21.042 10.004c0 .61-.494 1.11-1.105 1.11-.615 0-1.108-.5-1.108-1.11 0-.61.492-1.104 1.107-1.104.61 0 1.105.495 1.105 1.104z"/>
  <path d="M3.29 10.004c0 1.817 1.477 3.292 3.293 3.292 1.812 0 3.29-1.475 3.29-3.292 0-1.812-1.48-3.288-3.29-3.288-1.816.002-3.294 1.476-3.294 3.288zm1.134 0c0-1.188.97-2.155 2.16-2.155 1.19 0 2.155.967 2.155 2.154 0 1.192-.967 2.16-2.155 2.16-1.19.002-2.16-.966-2.16-2.16zM16.644 10.004c0 1.817 1.476 3.292 3.292 3.292 1.813 0 3.288-1.475 3.288-3.292 0-1.812-1.475-3.288-3.288-3.288-1.815.002-3.292 1.476-3.292 3.288zm1.135 0c0-1.188.967-2.155 2.158-2.155 1.188 0 2.153.967 2.153 2.154 0 1.192-.964 2.16-2.152 2.16-1.192.002-2.16-.966-2.16-2.16z"/>
  <path fill="none" d="M15.517 13.01c.54.824 1.29 1.488 2.206 1.912 1.29.596 2.737.652 4.07.16 2.752-1.02 4.166-4.083 3.15-6.833-1.018-2.753-4.082-4.165-6.835-3.15-1.333.492-2.395 1.475-2.99 2.766-.4.864-.533 1.8-.444 2.722"/>
  <path fill="#FFD881" d="M17.64 3.837c.695-.256 1.405-.38 2.106-.4-1.91-.855-4.072-1.288-6.467-1.288-2.378 0-4.57.443-6.48 1.258 3.455.07 6.264 2.775 6.506 6.185.06-.783.25-1.557.588-2.29.745-1.62 2.077-2.85 3.747-3.466z"/>
  <path d="M25.307 6.13c.312-1.336 1.304-2.675 1.304-2.675l-4.448-.003c-2.495-1.61-5.524-2.465-8.88-2.465-3.485 0-6.63.875-9.112 2.497L0 3.487S.98 4.81 1.297 6.14C.487 7.24.004 8.596.004 10.067c0 3.674 2.99 6.663 6.665 6.663 2.1 0 3.973-.978 5.195-2.5l1.42 2.125 1.43-2.142c.642.818 1.472 1.482 2.445 1.93 1.618.745 3.43.818 5.1.202 3.448-1.276 5.218-5.118 3.943-8.563-.224-.606-.53-1.157-.896-1.65zM13.28 2.15c2.395 0 4.557.433 6.467 1.29-.702.018-1.41.143-2.105.398-1.67.616-3.002 1.846-3.745 3.465-.338.733-.53 1.507-.588 2.29-.245-3.41-3.054-6.115-6.51-6.185 1.91-.815 4.102-1.258 6.48-1.258zm-2.208 10.895c-.957 1.412-2.575 2.342-4.405 2.342-2.934 0-5.32-2.39-5.32-5.32 0-2.934 2.387-5.32 5.32-5.32s5.32 2.386 5.32 5.32c0 .18-.035.35-.053.522-.09.9-.378 1.743-.862 2.455zm10.72 2.04c-1.332.49-2.778.434-4.07-.162-.915-.423-1.665-1.09-2.205-1.913-.22-.335-.414-.69-.556-1.076-.16-.438-.242-.89-.286-1.345-.09-.924.045-1.86.443-2.723.596-1.29 1.658-2.274 2.99-2.766 2.754-1.014 5.818.398 6.835 3.15 1.016 2.75-.397 5.814-3.15 6.834z"/>
  <g>
    <path fill="#589442" d="M95.578 2.053c0 .71.578 1.286 1.287 1.286.713 0 1.287-.577 1.287-1.287S97.576.765 96.865.765c-.71 0-1.287.578-1.287 1.288z"/>
    <path d="M34.47 1.96l-1.95.676V5.18h-2.162V6.89h2.103v5.48c0 2.605.888 3.67 3.068 3.67.553 0 1.08-.068 1.61-.212l.087-.022-.024-1.77-.148.057c-.43.15-.764.223-1.023.223-1.025 0-1.405-.578-1.405-2.13V6.888h2.495V5.18h-2.495V1.913l-.154.05zM41.215 6.91V5.18h-1.98v10.67H41.4v-5.356c0-2.245.943-3.482 2.653-3.482.248 0 .488.037.78.12l.14.04.072-2.107-.93-.07c-1.255-.002-2.268.676-2.9 1.914zM56.657 4.93c-1.485 0-2.733.703-3.566 1.982V5.18h-1.977v15.016h2.165v-5.822c.78 1.062 1.9 1.646 3.295 1.646 2.735 0 4.502-2.243 4.502-5.71 0-3.22-1.776-5.38-4.418-5.38zm-.604 9.34c-1.712 0-2.775-1.463-2.775-3.816 0-2.268 1.122-3.735 2.858-3.735 1.673 0 2.673 1.388 2.673 3.712 0 2.367-1.058 3.838-2.757 3.838z"/>
    <path fill="#589442" d="M67.4 4.93c-1.323 0-2.482.25-3.545.76l-.066.033.022 1.846.17-.096c1.016-.57 1.978-.86 2.854-.86 1.567 0 2.467.9 2.467 2.47v.09h-1.238c-3.562 0-5.522 1.29-5.522 3.63 0 1.88 1.415 3.192 3.44 3.192 1.49 0 2.643-.586 3.465-1.688v1.54h1.955V9.393c0-2.96-1.347-4.462-4.003-4.462zm1.9 6.416c0 1.838-1.106 3.027-2.817 3.027-1.048 0-1.78-.69-1.78-1.674 0-1.296 1.24-2.007 3.486-2.007H69.3c-.002.165-.002.653-.002.653zM80.592.084v6.543c-.798-1.11-1.908-1.697-3.334-1.697-2.647 0-4.426 2.18-4.426 5.42 0 3.337 1.804 5.667 4.382 5.667 1.527 0 2.718-.676 3.544-1.992v1.825h2V.084h-2.166zm-2.817 14.143c-1.65 0-2.673-1.438-2.673-3.753 0-2.318 1.033-3.816 2.634-3.816 1.787 0 2.855 1.425 2.855 3.816.002 2.283-1.1 3.753-2.815 3.753zM92.426 5.18l-3.068 6.16-2.837-6.16h-2.438l5.23 10.67 5.372-10.67h-2.258zM97.834 5.18h-2.05v10.67h2.167V5.18h-.116zM100.488 7.916c0 1.5 1.03 2.29 2.936 3.223 1.2.59 1.828.936 1.828 1.767 0 .852-.77 1.405-1.967 1.405-.846 0-1.785-.24-2.715-.696l-.158-.076-.07 1.88.072.028c.89.353 1.824.527 2.79.527 2.645 0 4.354-1.262 4.354-3.214 0-1.626-1.082-2.45-2.957-3.326-1.372-.645-1.948-1.022-1.948-1.705 0-.65.64-1.072 1.63-1.072.896 0 1.77.2 2.595.593l.156.073.094-1.84-.086-.026c-.895-.266-1.78-.4-2.632-.4-2.344-.002-3.92 1.148-3.92 2.86zM114.31 4.93c-3.253 0-5.272 2.14-5.272 5.585 0 3.444 2.02 5.583 5.27 5.583 3.267 0 5.296-2.14 5.296-5.583 0-3.444-2.03-5.585-5.295-5.585zm.018 9.402c-1.797 0-3.004-1.542-3.004-3.838 0-2.307 1.207-3.856 3.004-3.856 1.826 0 3.006 1.514 3.006 3.856 0 2.33-1.178 3.838-3.006 3.838zM123.596 6.91V5.18h-1.98v10.67h2.165v-5.356c0-2.245.94-3.482 2.65-3.482.25 0 .49.037.776.12l.145.04.07-2.107-.93-.07c-1.25-.002-2.26.676-2.894 1.914z"/>
    <path d="M48.9 5.18h-2.047v10.67h2.164V5.18H48.9zM46.643 2.053c0 .71.58 1.286 1.287 1.286.71 0 1.287-.577 1.287-1.287S48.64.765 47.93.765c-.708 0-1.287.578-1.287 1.288z"/>
    <path fill="#ABC99F" d="M132.578 4.708c.355.36.54.837.54 1.35 0 .538-.2 1.018-.57 1.373-.384.367-.862.562-1.36.562-.52 0-1-.205-1.373-.59-.36-.37-.557-.84-.557-1.344 0-.514.205-1.012.588-1.39.36-.352.822-.544 1.342-.544.533 0 1.02.2 1.39.584zm-2.492.21c-.312.313-.48.715-.48 1.14 0 .414.155.794.454 1.097.3.312.697.482 1.12.482.415 0 .812-.16 1.12-.457.3-.29.467-.688.467-1.123 0-.425-.154-.81-.447-1.108-.307-.312-.697-.477-1.13-.477-.43 0-.805.153-1.104.446zm1.137.038c.605 0 .916.22.916.616 0 .274-.163.486-.452.573l.475.93h-.643l-.398-.84h-.168v.84h-.584v-2.12h.853zm-.272.934h.204c.26 0 .385-.09.385-.274 0-.208-.132-.293-.417-.293h-.172v.567z"/>
    <path fill="#676768" d="M91.342 19.178l2.24 5.64h-.57l-.596-1.536H89.53l-.595 1.535h-.54l2.302-5.64h.645zm-1.598 3.632h2.484l-1.22-3.16-1.264 3.16zM94.62 19.178v3.33c0 1.295.48 1.936 1.49 1.936s1.532-.69 1.532-2.035v-3.23h.473v3.265c0 1.652-.666 2.473-2.04 2.473-1.302 0-1.976-.805-1.976-2.365V19.18h.52zM102.223 19.85c-.318-.16-.652-.24-1.014-.24-.8 0-1.237.346-1.237.875 0 .568.52.805 1.338 1.274.772.45 1.23.768 1.23 1.52 0 .92-.71 1.577-1.81 1.577-.44 0-.882-.09-1.29-.26l.066-.586c.438.233.85.366 1.23.366.765 0 1.237-.432 1.237-1.053 0-.64-.52-.86-1.328-1.332-.775-.454-1.213-.784-1.213-1.483 0-.855.635-1.376 1.783-1.376.357 0 .71.066 1.076.19l-.067.53zM106.873 19.178v.486h-1.652v5.152h-.52v-5.152h-1.66v-.486M108.953 19.178c1.223 0 1.852.492 1.852 1.438 0 .7-.457 1.203-1.28 1.375.382.08.56.325.75.747l.93 2.08h-.59l-.837-1.96c-.213-.487-.488-.642-1.004-.642h-.555v2.602h-.522v-5.64h1.255zm-.736 2.566h.652c.87 0 1.36-.438 1.36-1.123 0-.653-.44-.973-1.34-.973h-.678l.005 2.097zM114.37 19.178l2.24 5.64h-.57l-.595-1.536h-2.885l-.598 1.535h-.535l2.297-5.64h.647zm-1.6 3.632h2.487l-1.225-3.16-1.26 3.16zM117.855 19.178v5.15h2.26v.488h-2.78v-5.638M120.863 19.176h.52v5.64h-.52zM125.182 19.178l2.242 5.64h-.572l-.596-1.536h-2.885l-.597 1.535h-.535l2.3-5.64h.644zm-1.6 3.632h2.486l-1.223-3.16-1.263 3.16z"/>
  </g>
</svg>
